<?xml version="1.0" encoding="iso-8859-1"?>
<!-- Generator: Adobe Illustrator 19.0.0, SVG Export Plug-In . SVG Version: 6.00 Build 0)  -->
<svg version="1.1" id="Capa_1" xmlns="http://www.w3.org/2000/svg" xmlns:xlink="http://www.w3.org/1999/xlink" x="0px" y="0px"
	 viewBox="0 0 512 512" style="enable-background:new 0 0 512 512;" xml:space="preserve">
<g>
	<g>
		<path d="M493.047,276.418c-7.722-7.124-17.322-12.165-27.766-14.577l-0.284-0.065l-114.566-21.821L256.194,69.559
			c-13.897-25.127-37.933-43.159-65.946-49.472c-6.518-1.466-13.374,0.672-17.898,5.584s-6.096,11.922-4.1,18.295l53.723,171.541
			l-115.67-20.006l-59.677-63.475c-3.701-3.937-8.441-6.645-13.71-7.834c-9.078-2.049-18.428,0.656-25.008,7.237
			c-6.581,6.582-9.285,15.93-7.236,25.008l10.219,45.263L3.13,236.383c-1.914,6.972-0.935,14.499,2.719,20.754
			c3.766,6.443,10.101,11.076,17.383,12.709l0.254,0.057l452.704,85.123c1.885,0.4,3.774,0.595,5.64,0.595
			c10.115,0,19.56-5.708,24.196-15.135c1.812-3.685,3.188-7.586,4.089-11.591C514.405,309.857,508.025,290.239,493.047,276.418z
			 M480.844,322.307c-0.222,0.986-0.51,1.956-0.863,2.901L32.815,241.127l8.829-39.455l-9.253-40.984l52.747,56.104
			c3.973,4.226,9.088,7.011,14.793,8.055l121.648,21.041c9.346,1.684,18.681-1.557,24.977-8.675
			c6.314-7.139,8.383-16.831,5.535-25.927l-48.208-153.93c10.814,6.351,19.866,15.535,26.054,26.726l94.928,171.641
			c3.893,7.037,10.655,11.936,18.554,13.44l115.366,21.973c5.274,1.262,10.08,3.796,13.916,7.334
			C479.706,304.934,482.752,313.843,480.844,322.307z"/>
	</g>
</g>
<g>
	<g>
		<path d="M496.915,415.097H15.282c-8.285,0-15.002,6.717-15.002,15.002s6.716,15.002,15.002,15.002h481.633
			c8.285,0,15.002-6.717,15.002-15.002S505.2,415.097,496.915,415.097z"/>
	</g>
</g>
<g>
	<g>
		<path d="M496.997,462.363H15.365c-8.285,0-15.002,6.717-15.002,15.002s6.717,15.002,15.002,15.002h481.633
			c8.285,0,15.002-6.717,15.002-15.002S505.283,462.363,496.997,462.363z"/>
	</g>
</g>
<g>
</g>
<g>
</g>
<g>
</g>
<g>
</g>
<g>
</g>
<g>
</g>
<g>
</g>
<g>
</g>
<g>
</g>
<g>
</g>
<g>
</g>
<g>
</g>
<g>
</g>
<g>
</g>
<g>
</g>
</svg>
